<?xml version="1.0" encoding="UTF-8" standalone="no"?>
<!-- Created with Inkscape (http://www.inkscape.org/) -->

<svg
   version="1.1"
   id="svg1"
   width="331.84399"
   height="404.9216"
   viewBox="0 0 331.84398 404.9216"
   xmlns="http://www.w3.org/2000/svg"
   xmlns:svg="http://www.w3.org/2000/svg">
  <defs
     id="defs1" />
  <g
     id="g1"
     transform="translate(122.26833,155.01093)">
    <g
       id="group-R5"
       transform="matrix(6,0,0,6,-122.26833,-155.04934)">
      <path
         id="path12"
         d="m 277.766,386.195 c 4.609,0 9.234,-0.281 13.851,-0.718 1.414,-0.137 2.817,-0.352 4.231,-0.528 2.031,-0.25 4.066,-0.422 6.086,-0.754 v 0.125 121.832 L 0,506.152 V 355.184 C 0,283.363 50.0195,222.227 119.773,207.629 v 178.566 h 157.993"
         style="fill:#100f0d;fill-opacity:1;fill-rule:nonzero;stroke:none"
         transform="matrix(0.13333333,0,0,-0.13333333,0,67.493333)" />
      <path
         id="path13"
         d="m 150.969,194.219 c -3.871,0 -7.852,0.215 -11.918,0.551 -1.281,0.109 -2.625,0.281 -3.934,0.421 -1.777,0.192 -3.508,0.317 -5.344,0.571 V 195.672 0 l 82.082,102.117 h 65.911 c 75.562,0 137.039,61.477 137.039,137.039 0,62.465 -42.907,117.313 -102.871,132.719 v -16.691 c 0,-88.758 -72.207,-160.965 -160.965,-160.965"
         style="fill:#100f0d;fill-opacity:1;fill-rule:nonzero;stroke:none"
         transform="matrix(0.13333333,0,0,-0.13333333,0,67.493333)" />
      <path
         id="path14"
         d="m 139.574,204.75 c 3.906,-0.332 7.703,-0.531 11.395,-0.531 83.242,0 150.965,67.722 150.965,150.965 v 18.711 c -2.2,0.394 -4.403,0.746 -6.614,1.031 -1.457,0.187 -2.906,0.445 -4.367,0.586 -4.394,0.426 -8.801,0.683 -13.187,0.683 H 129.773 V 205.973 c 2.051,-0.301 4.09,-0.582 6.063,-0.801 1.242,-0.137 2.527,-0.32 3.738,-0.422"
         style="fill:#100f0d;fill-opacity:1;fill-rule:nonzero;stroke:none"
         transform="matrix(0.13333333,0,0,-0.13333333,0,67.493333)" />
    </g>
  </g>
</svg>
